<svg width="32" height="27" viewBox="0 0 32 27" fill="none" xmlns="http://www.w3.org/2000/svg">
<path d="M16.0527 0.825195C16.5395 0.825195 16.9935 1.01372 17.4111 1.37305H17.4102L30.9854 12.7607L30.9893 12.7637L31.1113 12.8906C31.2188 13.0238 31.2803 13.1758 31.2803 13.3457C31.2803 13.5197 31.2171 13.6754 31.0986 13.8057L31.0928 13.8115C30.9623 13.942 30.7909 13.999 30.5996 13.999C30.4918 13.999 30.3891 13.9834 30.2979 13.9443L30.2832 13.9375L30.2705 13.9287C30.214 13.8911 30.1529 13.8491 30.0879 13.8027L30.0762 13.7949L30.0771 13.7939L27.8896 11.958V26.208H26.542V10.8271L16.5557 2.44629L16.5508 2.44238C16.3854 2.29276 16.2205 2.22754 16.0527 2.22754C15.8959 2.22754 15.7354 2.29128 15.5684 2.44238L15.5635 2.44629L5.57715 10.8271V26.208H4.21582V11.9688L2.04199 13.7939L2.03125 13.8027C1.96303 13.8515 1.89438 13.896 1.8252 13.9355L1.81641 13.9404V13.9395C1.72844 13.9834 1.62561 13.999 1.51953 13.999C1.32774 13.999 1.15566 13.942 1.01855 13.8174L1.00684 13.8057C0.888387 13.6754 0.825195 13.5197 0.825195 13.3457C0.825195 13.1191 0.934371 12.9243 1.11621 12.7637L1.12012 12.7607L14.708 1.37305L14.8662 1.24707C15.238 0.970512 15.634 0.825195 16.0527 0.825195Z" fill="#151515" stroke="black" stroke-width="0.35"/>
</svg>
