<svg width="29" height="29" viewBox="0 0 29 29" fill="none" xmlns="http://www.w3.org/2000/svg">
<path d="M23.0684 24.0215L14.4141 15.4902C14.2865 15.3809 14.1999 15.2669 14.1543 15.1484C14.1178 15.0299 14.0996 14.8841 14.0996 14.7109V2.33789H15.5352V13.7949L25.2148 8.28516L25.9258 9.54297L16.1641 15.1074L24.1348 23.0234L23.0684 24.0215ZM14.6602 28.3418C12.7643 28.3418 10.987 27.9863 9.32812 27.2754C7.66927 26.5645 6.21094 25.5801 4.95312 24.3223C3.70443 23.0645 2.72461 21.6107 2.01367 19.9609C1.30273 18.3021 0.947266 16.5247 0.947266 14.6289C0.947266 12.7331 1.30273 10.9603 2.01367 9.31055C2.72461 7.65169 3.70443 6.19336 4.95312 4.93555C6.21094 3.66862 7.66927 2.68424 9.32812 1.98242C10.987 1.27148 12.7643 0.916016 14.6602 0.916016C16.5469 0.916016 18.3197 1.27148 19.9785 1.98242C21.6374 2.68424 23.0911 3.66862 24.3398 4.93555C25.5977 6.19336 26.582 7.65169 27.293 9.31055C28.013 10.9603 28.373 12.7331 28.373 14.6289C28.373 16.5247 28.013 18.3021 27.293 19.9609C26.582 21.6107 25.5977 23.0645 24.3398 24.3223C23.0911 25.5801 21.6374 26.5645 19.9785 27.2754C18.3197 27.9863 16.5469 28.3418 14.6602 28.3418ZM14.6602 26.5781C16.3099 26.5781 17.8548 26.2682 19.2949 25.6484C20.7441 25.0286 22.0156 24.1719 23.1094 23.0781C24.2031 21.9844 25.0599 20.7174 25.6797 19.2773C26.2995 17.8281 26.6094 16.2786 26.6094 14.6289C26.6094 12.9792 26.2995 11.4297 25.6797 9.98047C25.0599 8.53125 24.2031 7.26432 23.1094 6.17969C22.0156 5.08594 20.7441 4.22917 19.2949 3.60938C17.8548 2.98958 16.3099 2.67969 14.6602 2.67969C13.0104 2.67969 11.4609 2.98958 10.0117 3.60938C8.57161 4.22917 7.30469 5.08594 6.21094 6.17969C5.11719 7.26432 4.26042 8.53125 3.64062 9.98047C3.02083 11.4297 2.71094 12.9792 2.71094 14.6289C2.71094 16.2786 3.02083 17.8281 3.64062 19.2773C4.26042 20.7174 5.11719 21.9844 6.21094 23.0781C7.30469 24.1719 8.57161 25.0286 10.0117 25.6484C11.4609 26.2682 13.0104 26.5781 14.6602 26.5781Z" fill="#151515"/>
</svg>
