<svg width="28" height="28" viewBox="0 0 28 28" fill="none" xmlns="http://www.w3.org/2000/svg">
<path d="M22.9863 22.8984L14.3457 14.3398C14.2272 14.2396 14.1497 14.1348 14.1133 14.0254C14.0859 13.9069 14.0723 13.7611 14.0723 13.5879V1.16016H15.002V13.2598L25.2832 7.44922L25.7344 8.25586L15.4395 14.1074L23.6426 22.2969L22.9863 22.8984ZM14.3457 27.0273C12.4954 27.0273 10.7591 26.681 9.13672 25.9883C7.52344 25.2956 6.10156 24.3385 4.87109 23.1172C3.64062 21.8867 2.67904 20.4603 1.98633 18.8379C1.29362 17.2155 0.947266 15.4792 0.947266 13.6289C0.947266 11.7786 1.29362 10.0423 1.98633 8.41992C2.67904 6.79753 3.64062 5.37109 4.87109 4.14062C6.10156 2.91016 7.52344 1.95312 9.13672 1.26953C10.7591 0.576823 12.4954 0.230469 14.3457 0.230469C16.196 0.230469 17.9323 0.576823 19.5547 1.26953C21.1771 1.95312 22.599 2.91016 23.8203 4.14062C25.0508 5.37109 26.0124 6.79753 26.7051 8.41992C27.4069 10.0423 27.7578 11.7786 27.7578 13.6289C27.7578 15.4792 27.4069 17.2155 26.7051 18.8379C26.0124 20.4603 25.0508 21.8867 23.8203 23.1172C22.599 24.3385 21.1771 25.2956 19.5547 25.9883C17.9323 26.681 16.196 27.0273 14.3457 27.0273ZM14.3457 25.9883C16.0592 25.9883 17.6634 25.6693 19.1582 25.0312C20.653 24.3932 21.9655 23.5091 23.0957 22.3789C24.235 21.2396 25.1237 19.9271 25.7617 18.4414C26.3997 16.9466 26.7188 15.3424 26.7188 13.6289C26.7188 11.9154 26.3997 10.3112 25.7617 8.81641C25.1237 7.32161 24.235 6.00911 23.0957 4.87891C21.9655 3.7487 20.653 2.86458 19.1582 2.22656C17.6634 1.57943 16.0592 1.25586 14.3457 1.25586C12.6413 1.25586 11.0417 1.57943 9.54688 2.22656C8.05208 2.86458 6.73503 3.7487 5.5957 4.87891C4.46549 6.00911 3.58138 7.32161 2.94336 8.81641C2.30534 10.3112 1.98633 11.9154 1.98633 13.6289C1.98633 15.3424 2.30534 16.9466 2.94336 18.4414C3.58138 19.9271 4.46549 21.2396 5.5957 22.3789C6.73503 23.5091 8.05208 24.3932 9.54688 25.0312C11.0417 25.6693 12.6413 25.9883 14.3457 25.9883Z" fill="#919191"/>
</svg>
