<svg width="24" height="23" viewBox="0 0 24 23" fill="none" xmlns="http://www.w3.org/2000/svg">
<path d="M0.986328 11.6289C0.986328 11.3737 1.07747 11.1549 1.25977 10.9727C1.44206 10.7904 1.65625 10.6992 1.90234 10.6992H11.1445V1.4707C11.1445 1.22461 11.2311 1.01042 11.4043 0.828125C11.5866 0.645833 11.8053 0.554688 12.0605 0.554688C12.3158 0.554688 12.5345 0.645833 12.7168 0.828125C12.8991 1.01042 12.9902 1.22461 12.9902 1.4707V10.6992H22.2051C22.4603 10.6992 22.679 10.7904 22.8613 10.9727C23.0436 11.1549 23.1348 11.3737 23.1348 11.6289C23.1348 11.8841 23.0436 12.1029 22.8613 12.2852C22.679 12.4583 22.4603 12.5449 22.2051 12.5449H12.9902V21.7871C12.9902 22.0332 12.8991 22.2474 12.7168 22.4297C12.5345 22.612 12.3158 22.7031 12.0605 22.7031C11.8053 22.7031 11.5866 22.612 11.4043 22.4297C11.2311 22.2474 11.1445 22.0332 11.1445 21.7871V12.5449H1.90234C1.65625 12.5449 1.44206 12.4583 1.25977 12.2852C1.07747 12.1029 0.986328 11.8841 0.986328 11.6289Z" fill="#151515"/>
</svg>
