<svg width="23" height="23" viewBox="0 0 23 23" fill="none" xmlns="http://www.w3.org/2000/svg">
<path d="M0.986328 11.6289C0.986328 11.4831 1.03646 11.36 1.13672 11.2598C1.24609 11.1504 1.36914 11.0957 1.50586 11.0957H11.2676V1.34766C11.2676 1.20182 11.3177 1.07878 11.418 0.978516C11.5182 0.878255 11.6413 0.828125 11.7871 0.828125C11.9329 0.828125 12.056 0.878255 12.1562 0.978516C12.2656 1.07878 12.3203 1.20182 12.3203 1.34766V11.0957H22.0547C22.2096 11.0957 22.3372 11.1504 22.4375 11.2598C22.5378 11.36 22.5879 11.4831 22.5879 11.6289C22.5879 11.7747 22.5378 11.8978 22.4375 11.998C22.3372 12.0983 22.2096 12.1484 22.0547 12.1484H12.3203V21.8965C12.3203 22.0423 12.2656 22.1654 12.1562 22.2656C12.056 22.375 11.9329 22.4297 11.7871 22.4297C11.6413 22.4297 11.5182 22.375 11.418 22.2656C11.3177 22.1654 11.2676 22.0423 11.2676 21.8965V12.1484H1.50586C1.36914 12.1484 1.24609 12.0983 1.13672 11.998C1.03646 11.8978 0.986328 11.7747 0.986328 11.6289Z" fill="#919191"/>
</svg>
