<svg width="31" height="26" viewBox="0 0 31 26" fill="none" xmlns="http://www.w3.org/2000/svg">
<path d="M0.519531 12.8242C0.364583 12.8242 0.236979 12.7786 0.136719 12.6875C0.0455729 12.5872 0 12.4733 0 12.3457C0 12.1816 0.077474 12.0312 0.232422 11.8945L13.8223 0.505859C14.2142 0.16862 14.6243 0 15.0527 0C15.4902 0 15.9049 0.16862 16.2969 0.505859L29.873 11.8945C30.028 12.0312 30.1055 12.1816 30.1055 12.3457C30.1055 12.4733 30.0599 12.5872 29.9688 12.6875C29.8776 12.7786 29.7546 12.8242 29.5996 12.8242C29.5085 12.8242 29.431 12.8105 29.3672 12.7832C29.3125 12.7467 29.2533 12.7057 29.1895 12.6602L26.7148 10.5834L25.7168 9.74579L15.668 1.3125C15.4766 1.13932 15.2715 1.05273 15.0527 1.05273C14.8431 1.05273 14.6426 1.13932 14.4512 1.3125L4.40234 9.74579L3.39062 10.5949L0.929688 12.6602C0.865885 12.7057 0.802083 12.7467 0.738281 12.7832C0.683594 12.8105 0.610677 12.8242 0.519531 12.8242Z" fill="#919191"/>
<path d="M26.7148 10.5834L25.7168 9.74579V25.0332H26.7148V10.5834Z" fill="#919191"/>
<path d="M4.40234 9.74579L3.39062 10.5949V25.0332H4.40234V9.74579Z" fill="#919191"/>
</svg>
