<svg width="196" height="164" viewBox="0 0 196 164" fill="none" xmlns="http://www.w3.org/2000/svg">
<path d="M98 0.825195C100.868 0.825195 103.579 1.93611 106.13 4.13965L193.615 77.8408L193.618 77.8438L193.805 78.0146C194.708 78.8795 195.175 79.8406 195.175 80.8945C195.175 81.7663 194.863 82.5449 194.249 83.2236L194.243 83.2295C193.617 83.8588 192.775 84.166 191.74 84.166C191.136 84.166 190.612 84.0745 190.173 83.8857L190.158 83.8799L190.146 83.8711C189.791 83.6339 189.408 83.3671 188.995 83.0713L188.984 83.0635L189.098 82.9287L188.984 83.0625L173.326 69.8652V163.175H166.544V64.1504L101.852 9.62793L101.847 9.62305C100.639 8.52609 99.3583 7.9873 98 7.9873C96.7022 7.98731 95.4503 8.52452 94.2412 9.62305L94.2363 9.62793L29.5439 64.1504V163.175H22.6738V69.9395L7.10352 83.0625L7.09277 83.0713C6.67725 83.3694 6.26123 83.6379 5.84473 83.877L5.83594 83.8818C5.45019 84.0755 4.94995 84.166 4.34766 84.166C3.31222 84.166 2.44555 83.8588 1.7627 83.2354L1.75098 83.2236C1.13653 82.5449 0.825311 81.7663 0.825195 80.8945C0.825195 79.7704 1.35627 78.7525 2.38184 77.8438L2.38477 77.8408L89.958 4.13965C92.5079 1.93673 95.1897 0.825196 98 0.825195Z" fill="#151515" stroke="black" stroke-width="0.35"/>
</svg>
