<svg width="171" height="171" viewBox="0 0 171 171" fill="none" xmlns="http://www.w3.org/2000/svg">
<path d="M140.567 144.652L85.4564 90.0367C84.7007 89.3969 84.2065 88.7281 83.974 88.0301C83.7996 87.274 83.7124 86.3434 83.7124 85.2383V5.93265H89.642V83.1444L155.217 46.0653L158.094 51.2128L92.4324 88.5536L144.753 140.813L140.567 144.652ZM85.4564 171C73.6553 171 62.5808 168.79 52.233 164.369C41.9434 159.949 32.8746 153.842 25.0265 146.048C17.1785 138.196 11.0454 129.093 6.62723 118.74C2.20908 108.387 0 97.3071 0 85.5C0 73.6929 2.20908 62.6128 6.62723 52.2597C11.0454 41.9066 17.1785 32.8041 25.0265 24.952C32.8746 17.1 41.9434 10.9929 52.233 6.63061C62.5808 2.2102 73.6553 0 85.4564 0C97.2575 0 108.332 2.2102 118.68 6.63061C129.028 10.9929 138.096 17.1 145.886 24.952C153.734 32.8041 159.867 41.9066 164.286 52.2597C168.762 62.6128 171 73.6929 171 85.5C171 97.3071 168.762 108.387 164.286 118.74C159.867 129.093 153.734 138.196 145.886 146.048C138.096 153.842 129.028 159.949 118.68 164.369C108.332 168.79 97.2575 171 85.4564 171ZM85.4564 164.369C96.3855 164.369 106.617 162.334 116.151 158.262C125.685 154.191 134.056 148.549 141.265 141.337C148.531 134.066 154.199 125.691 158.269 116.21C162.338 106.671 164.373 96.4347 164.373 85.5C164.373 74.5653 162.338 64.3286 158.269 54.7898C154.199 45.251 148.531 36.8755 141.265 29.6633C134.056 22.451 125.685 16.8092 116.151 12.7378C106.617 8.60816 96.3855 6.54337 85.4564 6.54337C74.5854 6.54337 64.383 8.60816 54.8491 12.7378C45.3151 16.8092 36.9148 22.451 29.6481 29.6633C22.4396 36.8755 16.8006 45.251 12.7313 54.7898C8.66191 64.3286 6.62723 74.5653 6.62723 85.5C6.62723 96.4347 8.66191 106.671 12.7313 116.21C16.8006 125.691 22.4396 134.066 29.6481 141.337C36.9148 148.549 45.3151 154.191 54.8491 158.262C64.383 162.334 74.5854 164.369 85.4564 164.369Z" fill="#151515"/>
</svg>
